<svg width="12" height="13" viewBox="0 0 12 13" fill="none" xmlns="http://www.w3.org/2000/svg">
<path d="M10.3139 7.79831C10.7612 7.79866 11.1901 7.95292 11.5062 8.22721C11.8224 8.5015 12 8.87337 12 9.2611V9.85792C12 10.2304 11.8657 10.5937 11.616 10.8968C10.4564 12.3037 8.56328 13 5.99812 13C3.43146 13 1.5391 12.3031 0.382524 10.8962C0.133603 10.5932 -0.000113147 10.2305 7.18388e-08 9.85857V9.26045C0.000198837 8.87272 0.177984 8.50092 0.494288 8.22675C0.810592 7.95259 1.23953 7.79848 1.68686 7.79831H10.3139ZM5.99737 0C6.48986 -6.36103e-09 6.97753 0.0840804 7.43253 0.247441C7.88753 0.410801 8.30095 0.650243 8.64919 0.952093C8.99743 1.25394 9.27367 1.61229 9.46214 2.00668C9.65061 2.40107 9.74761 2.82377 9.74761 3.25065C9.74761 3.67753 9.65061 4.10023 9.46214 4.49462C9.27367 4.88901 8.99743 5.24736 8.64919 5.54921C8.30095 5.85106 7.88753 6.0905 7.43253 6.25386C6.97753 6.41722 6.48986 6.5013 5.99737 6.5013C5.00275 6.5013 4.04886 6.15882 3.34556 5.54921C2.64225 4.93959 2.24714 4.11278 2.24714 3.25065C2.24714 2.38852 2.64225 1.56171 3.34556 0.952093C4.04886 0.342478 5.00275 0 5.99737 0Z" fill="#8FADBD"/>
</svg>
