<svg width="14" height="13" viewBox="0 0 14 13" fill="none" xmlns="http://www.w3.org/2000/svg">
<path d="M4.18179 6.49999C3.45054 6.52176 2.85245 6.80033 2.38752 7.33571H1.48023C1.11009 7.33571 0.798631 7.24757 0.545854 7.07128C0.293076 6.895 0.166687 6.6371 0.166687 6.29759C0.166687 4.7611 0.446548 3.99285 1.00627 3.99285C1.03335 3.99285 1.13153 4.03855 1.3008 4.12996C1.47007 4.22137 1.69012 4.31386 1.96096 4.40744C2.23179 4.50103 2.50037 4.54782 2.76669 4.54782C3.06912 4.54782 3.36929 4.49776 3.66721 4.39765C3.64464 4.5587 3.63335 4.70234 3.63335 4.82857C3.63335 5.43359 3.81617 5.99073 4.18179 6.49999ZM11.4334 10.659C11.4334 11.1813 11.2686 11.5937 10.9391 11.8962C10.6096 12.1987 10.1717 12.35 9.62554 12.35H3.70783C3.16165 12.35 2.72381 12.1987 2.39429 11.8962C2.06478 11.5937 1.90002 11.1813 1.90002 10.659C1.90002 10.4283 1.90792 10.203 1.92372 9.98322C1.93952 9.76341 1.97111 9.52619 2.01851 9.27156C2.06591 9.01693 2.12571 8.7808 2.19794 8.56316C2.27016 8.34553 2.36721 8.13334 2.48908 7.92658C2.61096 7.71983 2.75089 7.54355 2.90887 7.39773C3.06686 7.25192 3.25983 7.13548 3.48778 7.04843C3.71573 6.96138 3.96738 6.91785 4.24273 6.91785C4.28787 6.91785 4.38492 6.96464 4.53387 7.05822C4.68283 7.15181 4.84759 7.25627 5.02815 7.37162C5.2087 7.48696 5.45019 7.59143 5.75262 7.68501C6.05506 7.77859 6.35974 7.82538 6.66669 7.82538C6.97363 7.82538 7.27832 7.77859 7.58075 7.68501C7.88318 7.59143 8.12467 7.48696 8.30523 7.37162C8.48578 7.25627 8.65054 7.15181 8.7995 7.05822C8.94846 6.96464 9.04551 6.91785 9.09065 6.91785C9.36599 6.91785 9.61764 6.96138 9.84559 7.04843C10.0735 7.13548 10.2665 7.25192 10.4245 7.39773C10.5825 7.54355 10.7224 7.71983 10.8443 7.92658C10.9662 8.13334 11.0632 8.34553 11.1354 8.56316C11.2077 8.7808 11.2675 9.01693 11.3149 9.27156C11.3623 9.52619 11.3939 9.76341 11.4097 9.98322C11.4255 10.203 11.4334 10.4283 11.4334 10.659ZM4.50002 2.32142C4.50002 2.78281 4.33075 3.17672 3.99221 3.50317C3.65367 3.82963 3.24516 3.99285 2.76669 3.99285C2.28821 3.99285 1.87971 3.82963 1.54117 3.50317C1.20262 3.17672 1.03335 2.78281 1.03335 2.32142C1.03335 1.86004 1.20262 1.46612 1.54117 1.13967C1.87971 0.813219 2.28821 0.649994 2.76669 0.649994C3.24516 0.649994 3.65367 0.813219 3.99221 1.13967C4.33075 1.46612 4.50002 1.86004 4.50002 2.32142ZM9.26669 4.82857C9.26669 5.52064 9.01278 6.11152 8.50497 6.60119C7.99716 7.09087 7.3844 7.33571 6.66669 7.33571C5.94898 7.33571 5.33622 7.09087 4.82841 6.60119C4.32059 6.11152 4.06669 5.52064 4.06669 4.82857C4.06669 4.13649 4.32059 3.54561 4.82841 3.05594C5.33622 2.56626 5.94898 2.32142 6.66669 2.32142C7.3844 2.32142 7.99716 2.56626 8.50497 3.05594C9.01278 3.54561 9.26669 4.13649 9.26669 4.82857ZM13.1667 6.29759C13.1667 6.6371 13.0403 6.895 12.7875 7.07128C12.5347 7.24757 12.2233 7.33571 11.8531 7.33571H10.9459C10.4809 6.80033 9.88283 6.52176 9.15158 6.49999C9.51721 5.99073 9.70002 5.43359 9.70002 4.82857C9.70002 4.70234 9.68874 4.5587 9.66617 4.39765C9.96408 4.49776 10.2643 4.54782 10.5667 4.54782C10.833 4.54782 11.1016 4.50103 11.3724 4.40744C11.6432 4.31386 11.8633 4.22137 12.0326 4.12996C12.2018 4.03855 12.3 3.99285 12.3271 3.99285C12.8868 3.99285 13.1667 4.7611 13.1667 6.29759ZM12.3 2.32142C12.3 2.78281 12.1307 3.17672 11.7922 3.50317C11.4537 3.82963 11.0452 3.99285 10.5667 3.99285C10.0882 3.99285 9.67971 3.82963 9.34117 3.50317C9.00262 3.17672 8.83335 2.78281 8.83335 2.32142C8.83335 1.86004 9.00262 1.46612 9.34117 1.13967C9.67971 0.813219 10.0882 0.649994 10.5667 0.649994C11.0452 0.649994 11.4537 0.813219 11.7922 1.13967C12.1307 1.46612 12.3 1.86004 12.3 2.32142Z" fill="#8FADBD"/>
</svg>
