<svg width="35" height="36" viewBox="0 0 35 36" fill="none" xmlns="http://www.w3.org/2000/svg">
<g clip-path="url(#clip0_323_38)">
<path d="M0.00439453 7.0625C0.00439453 5.90218 0.465331 4.78938 1.2858 3.96891C2.10627 3.14844 3.21907 2.6875 4.37939 2.6875H30.6294C31.7897 2.6875 32.9025 3.14844 33.723 3.96891C34.5435 4.78938 35.0044 5.90218 35.0044 7.0625V28.9375C35.0044 30.0978 34.5435 31.2106 33.723 32.0311C32.9025 32.8516 31.7897 33.3125 30.6294 33.3125H4.37939C3.21907 33.3125 2.10627 32.8516 1.2858 32.0311C0.465331 31.2106 0.00439453 30.0978 0.00439453 28.9375V7.0625ZM2.19189 26.75V28.9375C2.19189 29.5177 2.42236 30.0741 2.8326 30.4843C3.24283 30.8945 3.79923 31.125 4.37939 31.125H30.6294C31.2096 31.125 31.766 30.8945 32.1762 30.4843C32.5864 30.0741 32.8169 29.5177 32.8169 28.9375V21.2812L24.5547 17.0222C24.3496 16.9194 24.1173 16.8838 23.8908 16.9203C23.6643 16.9568 23.455 17.0636 23.2925 17.2256L15.1769 25.3412L9.35814 21.465C9.14806 21.3251 8.89606 21.2622 8.64489 21.2869C8.39371 21.3117 8.15881 21.4225 7.98002 21.6006L2.19189 26.75ZM13.1294 12.5312C13.1294 11.661 12.7837 10.8264 12.1683 10.2111C11.553 9.5957 10.7184 9.25 9.84814 9.25C8.9779 9.25 8.1433 9.5957 7.52795 10.2111C6.9126 10.8264 6.56689 11.661 6.56689 12.5312C6.56689 13.4015 6.9126 14.2361 7.52795 14.8514C8.1433 15.4668 8.9779 15.8125 9.84814 15.8125C10.7184 15.8125 11.553 15.4668 12.1683 14.8514C12.7837 14.2361 13.1294 13.4015 13.1294 12.5312Z" fill="#8BA798"/>
</g>
<defs>
<clipPath id="clip0_323_38">
<rect width="35" height="35" fill="white" transform="translate(0 0.5)"/>
</clipPath>
</defs>
</svg>
