<svg width="15" height="22" viewBox="0 0 15 22" fill="none" xmlns="http://www.w3.org/2000/svg">
<path d="M3.3 10.65V5.05001C3.3 3.9361 3.7425 2.86781 4.53015 2.08016C5.3178 1.2925 6.38609 0.850006 7.5 0.850006C8.61391 0.850006 9.6822 1.2925 10.4698 2.08016C11.2575 2.86781 11.7 3.9361 11.7 5.05001V10.65C11.7 11.7639 11.2575 12.8322 10.4698 13.6199C9.6822 14.4075 8.61391 14.85 7.5 14.85C6.38609 14.85 5.3178 14.4075 4.53015 13.6199C3.7425 12.8322 3.3 11.7639 3.3 10.65ZM14.5 10.65C14.5 10.4644 14.4263 10.2863 14.295 10.155C14.1637 10.0238 13.9857 9.95001 13.8 9.95001C13.6143 9.95001 13.4363 10.0238 13.305 10.155C13.1737 10.2863 13.1 10.4644 13.1 10.65C13.1 12.1352 12.51 13.5596 11.4598 14.6098C10.4096 15.66 8.98521 16.25 7.5 16.25C6.01479 16.25 4.59041 15.66 3.5402 14.6098C2.49 13.5596 1.9 12.1352 1.9 10.65C1.9 10.4644 1.82625 10.2863 1.69497 10.155C1.5637 10.0238 1.38565 9.95001 1.2 9.95001C1.01435 9.95001 0.836301 10.0238 0.705025 10.155C0.57375 10.2863 0.5 10.4644 0.5 10.65C0.502132 12.3847 1.14743 14.057 2.31111 15.3436C3.47479 16.6301 5.07419 17.4394 6.8 17.615V20.45C6.8 20.6357 6.87375 20.8137 7.00503 20.945C7.1363 21.0763 7.31435 21.15 7.5 21.15C7.68565 21.15 7.8637 21.0763 7.99498 20.945C8.12625 20.8137 8.2 20.6357 8.2 20.45V17.615C9.92581 17.4394 11.5252 16.6301 12.6889 15.3436C13.8526 14.057 14.4979 12.3847 14.5 10.65Z" fill="#5D656A"/>
</svg>
