<svg width="16" height="13" viewBox="0 0 16 13" fill="none" xmlns="http://www.w3.org/2000/svg">
<path d="M9.76188 3.6111H8.69046V7.2222L11.7476 9.05664L12.2619 8.18275L9.76188 6.68053V3.6111ZM9.40474 0C7.69978 0 6.06465 0.684817 4.85906 1.9038C3.65346 3.12278 2.97617 4.77608 2.97617 6.49998H0.833313L3.66188 9.41052L6.5476 6.49998H4.40474C4.40474 5.15917 4.93153 3.87327 5.86921 2.92517C6.80689 1.97707 8.07866 1.44444 9.40474 1.44444C10.7308 1.44444 12.0026 1.97707 12.9403 2.92517C13.878 3.87327 14.4047 5.15917 14.4047 6.49998C14.4047 7.84079 13.878 9.12668 12.9403 10.0748C12.0026 11.0229 10.7308 11.5555 9.40474 11.5555C8.02617 11.5555 6.77617 10.985 5.87617 10.0677L4.86188 11.0933C5.45589 11.7003 6.16355 12.1815 6.94355 12.5089C7.72354 12.8362 8.56023 13.0032 9.40474 13C11.1097 13 12.7448 12.3151 13.9504 11.0962C15.156 9.87717 15.8333 8.22388 15.8333 6.49998C15.8333 4.77608 15.156 3.12278 13.9504 1.9038C12.7448 0.684817 11.1097 0 9.40474 0Z" fill="url(#paint0_linear_5_3)"/>
<defs>
<linearGradient id="paint0_linear_5_3" x1="15.8333" y1="-2.68957e-06" x2="-0.866088" y2="2.77561" gradientUnits="userSpaceOnUse">
<stop stop-color="#04ACBB"/>
<stop offset="1" stop-color="#00BD78"/>
</linearGradient>
</defs>
</svg>
