<svg width="15" height="16" viewBox="0 0 15 16" fill="none" xmlns="http://www.w3.org/2000/svg">
<path d="M14.6048 13.1108L11.3001 9.80563C11.8753 8.8739 12.2233 7.78672 12.2233 6.61128C12.2233 3.23639 9.48728 0.499878 6.1114 0.499878C2.73651 0.499878 0 3.23589 0 6.61178C0 9.98666 2.73601 12.7232 6.1119 12.7232C7.28684 12.7232 8.37352 12.3752 9.30475 11.8005L12.6109 15.1057C12.8772 15.362 13.2334 15.5036 13.603 15.5001C13.9725 15.4965 14.326 15.348 14.5872 15.0866C14.8485 14.8252 14.9967 14.4716 14.9999 14.102C15.0032 13.7325 14.8613 13.3764 14.6048 13.1103V13.1108ZM6.1119 10.8427C5.55622 10.8427 5.00599 10.7332 4.49262 10.5206C3.97924 10.3079 3.51277 9.99624 3.11985 9.60332C2.72693 9.2104 2.41525 8.74394 2.2026 8.23056C1.98996 7.71718 1.88051 7.16695 1.88051 6.61128C1.88051 6.0556 1.98996 5.50537 2.2026 4.99199C2.41525 4.47862 2.72693 4.01215 3.11985 3.61923C3.51277 3.22631 3.97924 2.91463 4.49262 2.70198C5.00599 2.48933 5.55622 2.37988 6.1119 2.37988C7.23413 2.37988 8.31041 2.82569 9.10395 3.61923C9.89749 4.41277 10.3433 5.48904 10.3433 6.61128C10.3433 7.73351 9.89749 8.80978 9.10395 9.60332C8.31041 10.3969 7.23413 10.8427 6.1119 10.8427Z" fill="black" fill-opacity="0.7"/>
</svg>
