<svg width="80" height="29" viewBox="0 0 80 29" fill="none" xmlns="http://www.w3.org/2000/svg">
<path d="M6.776 16.676H17.908V22H0.484V5.06H6.776V16.676ZM28.2656 22.242C22.0946 22.242 18.392 20.1124 18.392 14.74C18.392 9.3676 22.0946 7.238 28.2656 7.238C34.4366 7.238 38.1392 9.3676 38.1392 14.74C38.1392 20.1124 34.4366 22.242 28.2656 22.242ZM28.2656 17.402C30.855 17.402 32.3312 16.8696 32.3312 14.74C32.3312 12.6104 30.855 12.078 28.2656 12.078C25.6762 12.078 24.2 12.6104 24.2 14.74C24.2 16.8696 25.6762 17.402 28.2656 17.402ZM52.5609 7.48H58.3689V20.1366C58.3689 25.9446 54.2065 28.05 49.2213 28.05C45.0831 28.05 41.5257 27.2756 40.1463 26.9126V22.1936C41.8161 22.5082 45.0105 23.21 48.1565 23.21C50.9879 23.21 52.5125 22.5324 52.5609 18.854C51.3025 20.3786 49.2455 21.274 46.3173 21.274C41.8403 21.274 38.6217 19.1444 38.6217 14.256C38.6217 9.3676 41.8403 7.238 46.3173 7.238C49.2455 7.238 51.3025 8.1334 52.5609 9.658V7.48ZM48.4953 16.434C51.5687 16.434 52.5609 15.9016 52.5609 14.256C52.5609 12.6104 51.5687 12.078 48.4953 12.078C45.4219 12.078 44.4297 12.6104 44.4297 14.256C44.4297 15.9016 45.4219 16.434 48.4953 16.434ZM68.9613 22.242C62.7903 22.242 59.0877 20.1124 59.0877 14.74C59.0877 9.3676 62.7903 7.238 68.9613 7.238C75.1323 7.238 78.8349 9.3676 78.8349 14.74C78.8349 20.1124 75.1323 22.242 68.9613 22.242ZM68.9613 17.402C71.5507 17.402 73.0269 16.8696 73.0269 14.74C73.0269 12.6104 71.5507 12.078 68.9613 12.078C66.3719 12.078 64.8957 12.6104 64.8957 14.74C64.8957 16.8696 66.3719 17.402 68.9613 17.402Z" fill="black"/>
</svg>
